<svg xmlns="http://www.w3.org/2000/svg" viewBox="0 0 800 600"><path d="M 185 155 L 535 105 L 650 170 L 300 225 Z" fill="#315b7d" stroke="none" stroke-width="1"/><path d="M 185 155 L 300 225 L 300 475 L 185 405 Z" fill="#264a68" stroke="none" stroke-width="1"/><path d="M 300 225 L 650 170 L 650 420 L 300 475 Z" fill="#3f7195" stroke="none" stroke-width="1"/><path d="M 315 239 L 634 189 L 634 399 L 315 450 Z" fill="#e9e1d0" stroke="none" stroke-width="1"/><path d="M 315 239 L 340 245 L 340 445 L 315 450 Z" fill="#d5ccba" stroke="none" stroke-width="1"/><path d="M 340 245 L 634 199 L 634 399 L 340 445 Z" fill="#f5f0e4" stroke="none" stroke-width="1"/><path d="M 340 445 L 634 399 L 634 407 L 340 453 Z" fill="#d8cfbd" stroke="none" stroke-width="1"/><path d="M 185 155 L 300 225 L 300 236 L 185 166 Z" fill="#23445f" stroke="none" stroke-width="1"/><path d="M 300 225 L 650 170 L 650 181 L 300 236 Z" fill="#294f6c" stroke="none" stroke-width="1"/><path d="M 185 166 L 300 236 L 300 475 L 185 405 Z" fill="#315b7d" stroke="none" stroke-width="1"/><path d="M 300 236 L 650 181 L 650 420 L 300 475 Z" fill="#3f7195" stroke="none" stroke-width="1"/></svg>